<svg width="188" height="33" viewBox="0 0 188 33" fill="none" xmlns="http://www.w3.org/2000/svg">
<rect x="-0.000732422" y="0.519531" width="32" height="32" fill="#FF7A03"/>
<g clip-path="url(#clip0_11_152)">
<path fill-rule="evenodd" clip-rule="evenodd" d="M15.9993 8.51953C11.5826 8.51953 7.99927 12.1029 7.99927 16.5195C7.99927 20.9362 11.5826 24.5195 15.9993 24.5195C20.4073 24.5195 23.9993 20.9362 23.9993 16.5195C23.9993 12.1029 20.4073 8.51953 15.9993 8.51953ZM21.2833 12.2069C22.2682 13.4064 22.8133 14.9068 22.8279 16.4589C22.6026 16.4155 20.3466 15.9555 18.0733 16.2422C18.0206 16.1289 17.9773 16.0075 17.9253 15.8862C17.7839 15.5525 17.6336 15.2226 17.4746 14.8969C19.9906 13.8729 21.1359 12.3982 21.2833 12.2069ZM15.9993 9.7002C17.7346 9.7002 19.3226 10.3502 20.5286 11.4175C20.4073 11.5909 19.3746 12.9709 16.9453 13.8815C15.8253 11.8255 14.5853 10.1415 14.3939 9.88153C14.9201 9.75866 15.4589 9.69758 15.9993 9.69953V9.7002ZM13.0926 10.3415C13.2746 10.5849 14.4893 12.2769 15.6259 14.2895C12.4326 15.1402 9.6126 15.1229 9.30927 15.1229C9.75193 13.0055 11.1839 11.2442 13.0926 10.3415ZM9.16193 16.5282V16.3202C9.45727 16.3289 12.7713 16.3722 16.1819 15.3482C16.3813 15.7302 16.5633 16.1202 16.7366 16.5109C16.6499 16.5369 16.5546 16.5629 16.4679 16.5889C12.9453 17.7255 11.0706 20.8315 10.9146 21.0922C9.78621 19.8399 9.1618 18.2139 9.16193 16.5282ZM15.9993 23.3569C14.4806 23.3593 13.005 22.8522 11.8086 21.9169C11.9299 21.6649 13.3179 18.9922 17.1706 17.6475C17.1879 17.6389 17.1973 17.6389 17.2139 17.6302C18.1773 20.1202 18.5673 22.2115 18.6719 22.8102C17.8473 23.1662 16.9453 23.3569 15.9993 23.3569ZM19.8086 22.1855C19.7393 21.7689 19.3746 19.7735 18.4806 17.3175C20.6239 16.9795 22.4979 17.5349 22.7326 17.6129C22.4373 19.5129 21.3439 21.1529 19.8086 22.1855Z" fill="white"/>
</g>
<rect x="51.9993" y="0.519531" width="32" height="32" fill="#FF7A03"/>
<g clip-path="url(#clip1_11_152)">
<path fill-rule="evenodd" clip-rule="evenodd" d="M64.976 9.23028C65.758 9.19428 66.0073 9.18628 67.9993 9.18628C69.9913 9.18628 70.2406 9.19495 71.022 9.23028C71.8033 9.26561 72.3366 9.39028 72.8033 9.57095C73.292 9.75561 73.7353 10.0443 74.102 10.4176C74.4753 10.7836 74.7633 11.2263 74.9473 11.7156C75.1286 12.1823 75.2526 12.7156 75.2886 13.4956C75.3246 14.2789 75.3326 14.5283 75.3326 16.5196C75.3326 18.5116 75.324 18.7609 75.2886 19.5429C75.2533 20.3229 75.1286 20.8563 74.9473 21.3229C74.7633 21.8123 74.4748 22.2557 74.102 22.6223C73.7353 22.9956 73.292 23.2836 72.8033 23.4676C72.3366 23.6489 71.8033 23.7729 71.0233 23.8089C70.2406 23.8449 69.9913 23.8529 67.9993 23.8529C66.0073 23.8529 65.758 23.8443 64.976 23.8089C64.196 23.7736 63.6626 23.6489 63.196 23.4676C62.7066 23.2836 62.2632 22.9951 61.8966 22.6223C61.5235 22.2561 61.2348 21.8129 61.0506 21.3236C60.87 20.8569 60.746 20.3236 60.71 19.5436C60.674 18.7603 60.666 18.5109 60.666 16.5196C60.666 14.5276 60.6746 14.2783 60.71 13.4969C60.7453 12.7156 60.87 12.1823 61.0506 11.7156C61.2351 11.2263 61.524 10.7832 61.8973 10.4169C62.2633 10.0439 62.7063 9.75524 63.1953 9.57095C63.662 9.39028 64.1953 9.26628 64.9753 9.23028H64.976ZM70.9626 10.5503C70.1893 10.5149 69.9573 10.5076 67.9993 10.5076C66.0413 10.5076 65.8093 10.5149 65.036 10.5503C64.3206 10.5829 63.9326 10.7023 63.674 10.8029C63.332 10.9363 63.0873 11.0943 62.8306 11.3509C62.5873 11.5876 62.4001 11.8758 62.2826 12.1943C62.182 12.4529 62.0626 12.8409 62.03 13.5563C61.9946 14.3296 61.9873 14.5616 61.9873 16.5196C61.9873 18.4776 61.9946 18.7096 62.03 19.4829C62.0626 20.1983 62.182 20.5863 62.2826 20.8449C62.4 21.1629 62.5873 21.4516 62.8306 21.6883C63.0673 21.9316 63.356 22.1189 63.674 22.2363C63.9326 22.3369 64.3206 22.4563 65.036 22.4889C65.8093 22.5243 66.0406 22.5316 67.9993 22.5316C69.958 22.5316 70.1893 22.5243 70.9626 22.4889C71.678 22.4563 72.066 22.3369 72.3246 22.2363C72.6666 22.1029 72.9113 21.9449 73.168 21.6883C73.4113 21.4516 73.5986 21.1629 73.716 20.8449C73.8166 20.5863 73.936 20.1983 73.9686 19.4829C74.004 18.7096 74.0113 18.4776 74.0113 16.5196C74.0113 14.5616 74.004 14.3296 73.9686 13.5563C73.936 12.8409 73.8166 12.4529 73.716 12.1943C73.5826 11.8523 73.4246 11.6076 73.168 11.3509C72.9312 11.1077 72.6431 10.9204 72.3246 10.8029C72.066 10.7023 71.678 10.5829 70.9626 10.5503ZM67.0626 18.7803C67.5857 18.998 68.1682 19.0274 68.7106 18.8634C69.2529 18.6994 69.7215 18.3522 70.0364 17.8811C70.3512 17.41 70.4927 16.8442 70.4367 16.2803C70.3806 15.7165 70.1306 15.1896 69.7293 14.7896C69.4734 14.5339 69.1641 14.3382 68.8235 14.2164C68.4829 14.0946 68.1196 14.0499 67.7596 14.0854C67.3997 14.1209 67.0521 14.2357 66.7418 14.4217C66.4316 14.6077 66.1665 14.8601 65.9655 15.1608C65.7645 15.4616 65.6327 15.8031 65.5796 16.1609C65.5265 16.5187 65.5534 16.8838 65.6583 17.23C65.7632 17.5761 65.9436 17.8947 66.1864 18.1628C66.4293 18.4308 66.7285 18.6417 67.0626 18.7803ZM65.334 13.8543C65.684 13.5043 66.0995 13.2266 66.5568 13.0372C67.0141 12.8478 67.5043 12.7503 67.9993 12.7503C68.4943 12.7503 68.9844 12.8478 69.4418 13.0372C69.8991 13.2266 70.3146 13.5043 70.6646 13.8543C71.0146 14.2043 71.2923 14.6198 71.4817 15.0771C71.6711 15.5345 71.7686 16.0246 71.7686 16.5196C71.7686 17.0146 71.6711 17.5048 71.4817 17.9621C71.2923 18.4194 71.0146 18.8349 70.6646 19.1849C69.9577 19.8918 68.999 20.289 67.9993 20.289C66.9996 20.289 66.0408 19.8918 65.334 19.1849C64.6271 18.4781 64.2299 17.5193 64.2299 16.5196C64.2299 15.5199 64.6271 14.5612 65.334 13.8543ZM72.6046 13.3116C72.6914 13.2298 72.7608 13.1314 72.8088 13.0223C72.8569 12.9131 72.8825 12.7955 72.8842 12.6762C72.886 12.557 72.8638 12.4386 72.8189 12.3282C72.7741 12.2177 72.7076 12.1173 72.6233 12.033C72.5389 11.9487 72.4386 11.8821 72.3281 11.8373C72.2176 11.7925 72.0992 11.7703 71.98 11.772C71.8608 11.7737 71.7431 11.7994 71.634 11.8474C71.5248 11.8954 71.4264 11.9649 71.3446 12.0516C71.1855 12.2203 71.0984 12.4444 71.1018 12.6762C71.1051 12.9081 71.1987 13.1295 71.3627 13.2935C71.5267 13.4575 71.7481 13.5511 71.98 13.5545C72.2119 13.5579 72.4359 13.4707 72.6046 13.3116Z" fill="white"/>
</g>
<rect x="103.999" y="0.519531" width="32" height="32" fill="#FF7A03"/>
<g clip-path="url(#clip2_11_152)">
<path d="M126.666 11.1861C126.666 11.1861 126.199 12.5861 125.333 13.4528C126.399 20.1195 119.066 24.9861 113.333 21.1861C114.799 21.2528 116.266 20.7861 117.333 19.8528C113.999 18.8528 112.333 14.9195 113.999 11.8528C115.466 13.5861 117.733 14.5861 119.999 14.5195C119.399 11.7195 122.666 10.1195 124.666 11.9861C125.399 11.9861 126.666 11.1861 126.666 11.1861Z" fill="white" stroke="white" stroke-linecap="round" stroke-linejoin="round"/>
</g>
<rect x="155.999" y="0.519531" width="32" height="32" fill="#FF7A03"/>
<path d="M179.499 16.9757C179.499 16.9413 179.499 16.9022 179.498 16.8569C179.496 16.7304 179.493 16.5882 179.49 16.4366C179.477 16.0007 179.456 15.5663 179.421 15.1569C179.374 14.5929 179.306 14.1226 179.212 13.7694C179.113 13.4009 178.919 13.0648 178.649 12.7947C178.38 12.5247 178.044 12.3301 177.676 12.2304C177.234 12.1116 176.368 12.0382 175.149 11.9929C174.57 11.971 173.949 11.9569 173.329 11.9491C173.112 11.946 172.91 11.9444 172.729 11.9429H172.27C172.088 11.9444 171.887 11.946 171.67 11.9491C171.049 11.9569 170.429 11.971 169.849 11.9929C168.631 12.0397 167.763 12.1132 167.323 12.2304C166.954 12.3298 166.618 12.5243 166.349 12.7945C166.079 13.0646 165.885 13.4008 165.787 13.7694C165.691 14.1226 165.624 14.5929 165.577 15.1569C165.543 15.5663 165.521 16.0007 165.509 16.4366C165.504 16.5882 165.502 16.7304 165.501 16.8569C165.501 16.9022 165.499 16.9413 165.499 16.9757V17.0632C165.499 17.0976 165.499 17.1366 165.501 17.1819C165.502 17.3085 165.506 17.4507 165.509 17.6022C165.521 18.0382 165.543 18.4726 165.577 18.8819C165.624 19.446 165.693 19.9163 165.787 20.2694C165.987 21.0179 166.574 21.6085 167.323 21.8085C167.763 21.9272 168.631 22.0007 169.849 22.046C170.429 22.0679 171.049 22.0819 171.67 22.0897C171.887 22.0929 172.088 22.0944 172.27 22.096H172.729C172.91 22.0944 173.112 22.0929 173.329 22.0897C173.949 22.0819 174.57 22.0679 175.149 22.046C176.368 21.9991 177.235 21.9257 177.676 21.8085C178.424 21.6085 179.012 21.0194 179.212 20.2694C179.307 19.9163 179.374 19.446 179.421 18.8819C179.456 18.4726 179.477 18.0382 179.49 17.6022C179.495 17.4507 179.496 17.3085 179.498 17.1819C179.498 17.1366 179.499 17.0976 179.499 17.0632V16.9757ZM178.374 17.0569C178.374 17.0897 178.374 17.1257 178.373 17.1679C178.371 17.2897 178.368 17.4241 178.365 17.5694C178.354 17.9851 178.332 18.4007 178.299 18.7866C178.257 19.2897 178.198 19.7022 178.124 19.9788C178.027 20.3397 177.743 20.6257 177.384 20.721C177.056 20.8085 176.229 20.8788 175.106 20.921C174.537 20.9429 173.924 20.9569 173.313 20.9647C173.099 20.9679 172.901 20.9694 172.723 20.9694H172.276L171.685 20.9647C171.074 20.9569 170.463 20.9429 169.893 20.921C168.77 20.8772 167.941 20.8085 167.615 20.721C167.256 20.6241 166.971 20.3397 166.874 19.9788C166.801 19.7022 166.741 19.2897 166.699 18.7866C166.666 18.4007 166.646 17.9851 166.634 17.5694C166.629 17.4241 166.627 17.2882 166.626 17.1679C166.626 17.1257 166.624 17.0882 166.624 17.0569V16.9819C166.624 16.9491 166.624 16.9132 166.626 16.871C166.627 16.7491 166.631 16.6147 166.634 16.4694C166.645 16.0538 166.666 15.6382 166.699 15.2522C166.741 14.7491 166.801 14.3366 166.874 14.0601C166.971 13.6991 167.256 13.4132 167.615 13.3179C167.943 13.2304 168.77 13.1601 169.893 13.1179C170.462 13.096 171.074 13.0819 171.685 13.0741C171.899 13.071 172.098 13.0694 172.276 13.0694H172.723L173.313 13.0741C173.924 13.0819 174.535 13.096 175.106 13.1179C176.229 13.1616 177.057 13.2304 177.384 13.3179C177.743 13.4147 178.027 13.6991 178.124 14.0601C178.198 14.3366 178.257 14.7491 178.299 15.2522C178.332 15.6382 178.352 16.0538 178.365 16.4694C178.37 16.6147 178.371 16.7507 178.373 16.871C178.373 16.9132 178.374 16.9507 178.374 16.9819V17.0569ZM171.109 19.1132L174.734 17.0038L171.109 14.9257V19.1132Z" fill="white"/>
<defs>
<clipPath id="clip0_11_152">
<rect width="16" height="16" fill="white" transform="translate(7.99927 8.51953)"/>
</clipPath>
<clipPath id="clip1_11_152">
<rect width="16" height="16" fill="white" transform="translate(59.9993 8.51953)"/>
</clipPath>
<clipPath id="clip2_11_152">
<rect width="16" height="16" fill="white" transform="translate(111.999 8.51953)"/>
</clipPath>
</defs>
</svg>
