<svg width="224" height="223" viewBox="0 0 224 223" fill="none" xmlns="http://www.w3.org/2000/svg">
<circle cx="111.99" cy="111.548" r="111.169" fill="url(#paint0_linear_11_144)"/>
<path d="M103.875 190.07L101.958 189.967L102.339 182.897L104.096 182.992L104.046 183.931C105.11 183.254 106.428 182.957 107.999 183.042C109.264 183.11 110.427 183.453 111.489 184.071C112.537 184.688 113.359 185.547 113.954 186.647C114.535 187.76 114.786 189.048 114.707 190.513C114.633 191.898 114.247 193.119 113.549 194.176C112.838 195.233 111.9 196.037 110.735 196.588C109.556 197.153 108.255 197.396 106.83 197.32C105.712 197.259 104.71 197.019 103.825 196.597C102.925 196.188 102.175 195.614 101.574 194.874L102.879 193.702C103.939 194.841 105.262 195.453 106.846 195.538C107.911 195.595 108.882 195.414 109.759 194.994C110.623 194.573 111.317 193.963 111.841 193.163C112.365 192.363 112.654 191.444 112.71 190.406C112.77 189.3 112.582 188.329 112.146 187.491C111.697 186.652 111.085 185.999 110.309 185.529C109.532 185.074 108.678 184.821 107.746 184.771C107.093 184.736 106.455 184.808 105.831 184.988C105.193 185.181 104.617 185.477 104.101 185.876L103.875 190.07Z" fill="#F6F4F4"/>
<path d="M83.4599 192.625C81.6986 192.006 80.4894 191.003 79.8324 189.613C79.171 188.237 79.1759 186.592 79.8471 184.68L82.45 177.263L84.3372 177.926L83.0589 181.568L90.683 184.244L91.9612 180.602L93.8107 181.251L91.2077 188.667C90.5365 190.579 89.5126 191.866 88.1359 192.528C86.7547 193.202 85.1961 193.234 83.4599 192.625ZM82.4827 183.21L81.6746 185.512C81.2021 186.858 81.1842 187.997 81.6207 188.927C82.0446 189.853 82.8542 190.526 84.0494 190.945C85.2446 191.365 86.3033 191.348 87.2255 190.894C88.1352 190.436 88.8262 189.534 89.2987 188.188L90.1067 185.886L82.4827 183.21Z" fill="#F6F4F4"/>
<path d="M67.0978 184.781L65.4407 183.661L72.3054 173.503L66.0251 169.259L66.9993 167.817L74.9368 173.181L67.0978 184.781Z" fill="#F6F4F4"/>
<path d="M51.5898 172.652L50.2313 171.185L59.2287 162.857L54.0798 157.294L55.3568 156.112L61.8642 163.143L51.5898 172.652Z" fill="#F6F4F4"/>
<path d="M45.0407 142.037C45.7759 142.313 46.5091 142.804 47.2405 143.511C47.9602 144.223 48.6001 145.08 49.1602 146.08C49.7854 147.197 50.1707 148.227 50.3162 149.169C50.45 150.118 50.3658 150.937 50.0637 151.625C49.7615 152.314 49.2672 152.85 48.5808 153.235C47.8827 153.625 47.1728 153.763 46.4511 153.647C45.7112 153.527 45.0517 153.208 44.4724 152.692C44.5263 153.334 44.4019 153.931 44.0993 154.483C43.7851 155.04 43.3197 155.492 42.7031 155.837C42.0631 156.195 41.3863 156.337 40.6725 156.263C39.9521 156.177 39.2323 155.847 38.513 155.272C37.7821 154.703 37.1171 153.883 36.518 152.813C36.0946 152.056 35.7658 151.278 35.5314 150.477C35.2906 149.664 35.1749 148.912 35.1843 148.219L36.8638 147.944C36.8914 149.303 37.2634 150.623 37.9798 151.903C38.5724 152.962 39.217 153.663 39.9135 154.006C40.5984 154.356 41.2434 154.362 41.8484 154.023C42.4534 153.685 42.7983 153.209 42.8831 152.596C42.9679 151.983 42.7856 151.276 42.3363 150.473L40.578 147.331L42.0788 146.491L43.8763 149.703C44.3907 150.622 44.9574 151.252 45.5762 151.593C46.195 151.934 46.8302 151.923 47.4818 151.558C48.1449 151.187 48.4966 150.6 48.5368 149.798C48.577 148.997 48.2682 148.008 47.6105 146.833C47.1546 146.019 46.611 145.307 45.9797 144.698C45.3302 144.083 44.6741 143.648 44.0116 143.393L45.0407 142.037Z" fill="#F6F4F4"/>
<path d="M41.41 125.684L38.005 129.686C38.1244 130.041 38.2109 130.322 38.2644 130.528L39.1322 133.877L43.2561 132.809L43.7577 134.745L30.2052 138.256L28.8357 132.971C28.3809 131.216 28.4426 129.726 29.0207 128.502C29.5988 127.278 30.6235 126.475 32.095 126.094C33.1404 125.823 34.0979 125.85 34.9674 126.176C35.8369 126.502 36.5631 127.098 37.1462 127.967L40.8632 123.574L41.41 125.684ZM36.6338 131.013C36.3161 129.786 35.809 128.919 35.1126 128.411C34.4162 127.903 33.5775 127.776 32.5966 128.03C31.6157 128.284 30.9507 128.801 30.6016 129.58C30.2396 130.362 30.2175 131.366 30.5352 132.593L31.388 135.884L37.4866 134.304L36.6338 131.013Z" fill="#F6F4F4"/>
<path d="M26.2671 103.734L36.1044 103.965C38.1305 104.013 39.6707 104.589 40.7251 105.694C41.7794 106.799 42.2841 108.305 42.2393 110.211C42.2124 111.357 42.0079 112.399 41.6257 113.337C41.2572 114.262 40.7389 115.037 40.0707 115.661L38.5313 114.765C39.7598 113.567 40.396 112.035 40.4398 110.169C40.5044 107.423 39.0704 106.015 36.1379 105.946L34.7183 105.913C36.056 106.878 36.7018 108.34 36.6557 110.3C36.6144 112.059 36.0757 113.414 35.0398 114.363C34.0039 115.312 32.5462 115.765 30.6667 115.721L25.988 115.611L26.035 113.611L30.6337 113.719C31.9933 113.751 33.0342 113.442 33.7563 112.792C34.4785 112.142 34.8535 111.224 34.8814 110.038C34.9115 108.758 34.5619 107.743 33.8326 106.993C33.1034 106.242 31.999 105.849 30.5194 105.814L26.2206 105.713L26.2671 103.734Z" fill="#F6F4F4"/>
<path d="M46.8248 81.566C46.3803 82.5209 45.8048 83.3781 45.0983 84.1376C44.3853 84.8793 43.675 85.3943 42.9672 85.6826L41.8652 84.3534C42.5255 84.0724 43.169 83.6219 43.7959 83.0019C44.4163 82.3641 44.9122 81.6464 45.2836 80.8486C45.7731 79.7969 45.9636 78.9296 45.855 78.2467C45.7343 77.5581 45.3778 77.0759 44.7855 76.8002C44.3504 76.5977 43.9323 76.5795 43.5313 76.7459C43.1239 76.8945 42.7492 77.1465 42.4072 77.5021C42.0708 77.8456 41.6347 78.3559 41.0989 79.033C40.4247 79.881 39.8349 80.5477 39.3295 81.0331C38.8298 81.5064 38.2457 81.8449 37.5774 82.0485C36.9025 82.2345 36.1602 82.1389 35.3503 81.7619C34.6734 81.4468 34.1445 80.9874 33.7637 80.3836C33.3886 79.7678 33.2066 79.0213 33.2179 78.1441C33.2291 77.2669 33.4851 76.2904 33.9859 75.2146C34.3348 74.4651 34.7747 73.7728 35.3057 73.1375C35.8367 72.5023 36.4045 72.0092 37.0091 71.6582L38.1811 72.9318C37.5951 73.3061 37.0768 73.756 36.6262 74.2817C36.1636 74.8017 35.7972 75.3518 35.5271 75.932C35.0488 76.9594 34.8761 77.8203 35.0088 78.5145C35.1472 79.1966 35.5126 79.6755 36.1049 79.9512C36.5401 80.1538 36.9642 80.1748 37.3772 80.0141C37.7782 79.8477 38.1558 79.5896 38.5098 79.2397C38.8575 78.872 39.2875 78.3589 39.8 77.7003C40.4741 76.8523 41.0611 76.1916 41.5609 75.7183C42.0606 75.245 42.6419 74.9126 43.3046 74.7211C43.973 74.5174 44.7061 74.6013 45.5039 74.9727C46.1687 75.2821 46.6947 75.7476 47.082 76.3691C47.4571 76.9849 47.6363 77.7375 47.6194 78.6268C47.5905 79.5104 47.3256 80.4902 46.8248 81.566Z" fill="#F6F4F4"/>
<path d="M50.2725 51.5544L60.9266 60.6368L59.6291 62.1588L54.8804 58.1106L49.6646 64.2291L54.4132 68.2773L53.1158 69.7993L42.4616 60.7169L43.7591 59.1949L48.3404 63.1003L53.5563 56.9818L48.975 53.0764L50.2725 51.5544Z" fill="#F6F4F4"/>
<path d="M73.3282 51.1436C72.1365 51.9034 70.8979 52.3294 69.6126 52.4215C68.32 52.5023 67.1044 52.2574 65.9658 51.6867C64.8384 51.1088 63.9127 50.2521 63.1888 49.1166C62.4648 47.9811 62.0788 46.7803 62.0307 45.5144C61.9938 44.2413 62.2884 43.0415 62.9143 41.915C63.533 40.7774 64.4383 39.8286 65.63 39.0689C66.8105 38.3162 68.047 37.8995 69.3396 37.8187C70.6249 37.7266 71.8313 37.9695 72.9587 38.5473C74.0789 39.1139 75.0046 39.9706 75.7357 41.1174C76.4669 42.2642 76.8565 43.4705 76.9046 44.7365C76.9455 45.9912 76.6566 47.1874 76.0378 48.3251C75.4119 49.4515 74.5087 50.391 73.3282 51.1436ZM72.3713 49.6427C73.237 49.0908 73.8873 48.3995 74.3223 47.5687C74.7684 46.7308 74.9697 45.8436 74.9259 44.9069C74.8863 43.9518 74.5941 43.047 74.0493 42.1925C73.5046 41.3381 72.8112 40.697 71.9692 40.2692C71.1313 39.823 70.2384 39.6254 69.2905 39.6763C68.3538 39.72 67.4526 40.0179 66.5869 40.5698C65.7212 41.1217 65.0597 41.8202 64.6022 42.6653C64.1561 43.5032 63.9528 44.3996 63.9925 45.3547C64.0362 46.2914 64.3304 47.187 64.8752 48.0414C65.4199 48.8959 66.1113 49.5462 66.9492 49.9924C67.7911 50.4202 68.6861 50.6086 69.634 50.5577C70.5932 50.4996 71.5056 50.1946 72.3713 49.6427Z" fill="#F6F4F4"/>
<path d="M87.9425 29.1232C89.6834 28.6155 91.1743 28.6321 92.4153 29.1729C93.6564 29.7137 94.4897 30.7137 94.9153 32.1729C95.3409 33.6321 95.1758 34.9233 94.4201 36.0465C93.6643 37.1697 92.4161 37.9851 90.6752 38.4929L87.3536 39.4616L88.5408 43.532L86.6208 44.092L82.7009 30.652L87.9425 29.1232ZM90.1305 36.8393C91.3465 36.4846 92.1998 35.9579 92.6905 35.2593C93.1774 34.5478 93.279 33.7057 92.9953 32.7329C92.7116 31.7601 92.1751 31.111 91.3857 30.7857C90.5927 30.4475 89.5881 30.4558 88.3721 30.8104L85.1081 31.7624L86.8665 37.7912L90.1305 36.8393Z" fill="#F6F4F4"/>
<path d="M126.825 33.9587L128.725 34.2302L127.724 41.239L125.982 40.9901L126.115 40.0596C124.995 40.6404 123.656 40.8195 122.099 40.597C120.845 40.4179 119.716 39.9738 118.713 39.2648C117.723 38.5577 116.98 37.63 116.484 36.4817C116.003 35.322 115.867 34.0162 116.074 32.5643C116.27 31.1916 116.762 30.0093 117.55 29.0174C118.352 28.0275 119.357 27.3091 120.565 26.8622C121.789 26.404 123.107 26.2757 124.52 26.4775C125.628 26.6359 126.605 26.964 127.45 27.4618C128.31 27.9482 129.006 28.5865 129.54 29.3766L128.137 30.4288C127.181 29.2012 125.918 28.4753 124.347 28.2509C123.291 28.1001 122.308 28.1953 121.397 28.5366C120.499 28.8798 119.755 29.4266 119.163 30.1771C118.57 30.9276 118.201 31.8176 118.054 32.8471C117.897 33.9427 117.999 34.927 118.359 35.8C118.733 36.6749 119.285 37.3802 120.017 37.9157C120.75 38.438 121.579 38.7651 122.503 38.8971C123.15 38.9895 123.792 38.9735 124.429 38.849C125.082 38.7133 125.682 38.4691 126.231 38.1165L126.825 33.9587Z" fill="#F6F4F4"/>
<path d="M147.386 33.2111C149.086 33.9819 150.202 35.0882 150.734 36.5299C151.272 37.9595 151.122 39.5972 150.285 41.443L147.04 48.6016L145.218 47.7757L146.812 44.2602L139.453 40.9237L137.859 44.4392L136.074 43.6299L139.32 36.4713C140.157 34.6255 141.29 33.4338 142.72 32.8961C144.155 32.3463 145.71 32.4513 147.386 33.2111ZM147.531 42.6755L148.538 40.4532C149.127 39.1539 149.245 38.0216 148.892 37.0564C148.552 36.0967 147.804 35.3553 146.651 34.8323C145.497 34.3092 144.441 34.233 143.483 34.6036C142.536 34.9796 141.768 35.8174 141.179 37.1167L140.172 39.339L147.531 42.6755Z" fill="#F6F4F4"/>
<path d="M162.994 42.4644L164.546 43.7258L156.814 53.24L162.696 58.0206L161.599 59.3709L154.165 53.329L162.994 42.4644Z" fill="#F6F4F4"/>
<path d="M177.374 55.9114L178.598 57.493L168.903 64.9966L173.542 70.9911L172.166 72.056L166.303 64.4799L177.374 55.9114Z" fill="#F6F4F4"/>
<path d="M181.203 86.9838C180.495 86.6441 179.808 86.0904 179.142 85.3227C178.487 84.5495 177.925 83.6399 177.456 82.5939C176.931 81.4263 176.638 80.3668 176.576 79.4153C176.526 78.4583 176.682 77.6502 177.044 76.9908C177.405 76.3314 177.945 75.8406 178.662 75.5183C179.392 75.1905 180.111 75.1159 180.82 75.2946C181.547 75.4799 182.176 75.8551 182.707 76.4203C182.71 75.7759 182.886 75.1924 183.236 74.6698C183.598 74.1417 184.102 73.7329 184.746 73.4434C185.415 73.1429 186.102 73.061 186.807 73.1977C187.517 73.3466 188.205 73.7392 188.87 74.3756C189.548 75.0065 190.139 75.8814 190.641 77.0004C190.996 77.791 191.255 78.5955 191.418 79.4139C191.587 80.2445 191.636 81.0044 191.565 81.6938L189.868 81.8203C189.96 80.4634 189.706 79.116 189.105 77.7781C188.608 76.6713 188.028 75.9161 187.364 75.5126C186.713 75.1036 186.071 75.0411 185.438 75.3252C184.806 75.6093 184.42 76.0528 184.282 76.6558C184.143 77.2588 184.263 77.9799 184.64 78.8191L186.115 82.1031L184.546 82.8078L183.038 79.4508C182.606 78.49 182.097 77.8124 181.511 77.418C180.924 77.0236 180.291 76.9794 179.61 77.2853C178.916 77.5967 178.514 78.15 178.404 78.9451C178.293 79.7402 178.514 80.752 179.066 81.9804C179.448 82.8318 179.927 83.5888 180.502 84.2512C181.095 84.9204 181.71 85.4114 182.348 85.7244L181.203 86.9838Z" fill="#F6F4F4"/>
<path d="M183.38 103.593L187.124 99.9066C187.037 99.5428 186.975 99.2556 186.94 99.0452L186.37 95.6324L182.169 96.3338L181.839 94.3611L195.648 92.0562L196.547 97.4416C196.846 99.2302 196.653 100.709 195.97 101.877C195.286 103.046 194.194 103.755 192.695 104.005C191.63 104.183 190.679 104.072 189.841 103.671C189.004 103.27 188.333 102.611 187.828 101.695L183.739 105.744L183.38 103.593ZM188.607 98.7062C188.816 99.9555 189.244 100.864 189.893 101.432C190.542 101.999 191.366 102.2 192.366 102.033C193.365 101.866 194.073 101.41 194.49 100.664C194.919 99.9168 195.03 98.9183 194.821 97.6689L194.261 94.3153L188.047 95.3526L188.607 98.7062Z" fill="#F6F4F4"/>
<path d="M196.532 126.791L186.754 125.695C184.739 125.469 183.256 124.759 182.303 123.566C181.35 122.372 180.98 120.828 181.192 118.933C181.32 117.794 181.615 116.774 182.079 115.873C182.527 114.984 183.112 114.258 183.832 113.695L185.287 114.723C183.958 115.809 183.189 117.279 182.981 119.134C182.675 121.863 183.98 123.392 186.895 123.718L188.306 123.877C187.058 122.798 186.544 121.284 186.762 119.336C186.958 117.587 187.614 116.286 188.729 115.431C189.845 114.577 191.337 114.254 193.205 114.464L197.856 114.985L197.633 116.973L193.062 116.46C191.71 116.309 190.646 116.525 189.869 117.109C189.093 117.692 188.639 118.574 188.506 119.753C188.364 121.025 188.623 122.067 189.283 122.879C189.943 123.691 191.009 124.18 192.48 124.344L196.753 124.823L196.532 126.791Z" fill="#F6F4F4"/>
<path d="M174.103 147.064C174.63 146.151 175.279 145.348 176.049 144.654C176.825 143.978 177.578 143.527 178.308 143.302L179.289 144.724C178.606 144.945 177.926 145.337 177.247 145.9C176.572 146.48 176.015 147.152 175.575 147.914C174.995 148.918 174.729 149.765 174.777 150.455C174.837 151.152 175.149 151.664 175.715 151.99C176.131 152.23 176.545 152.285 176.959 152.155C177.378 152.043 177.774 151.825 178.146 151.5C178.511 151.188 178.99 150.718 179.584 150.091C180.33 149.305 180.976 148.693 181.522 148.254C182.062 147.827 182.673 147.541 183.357 147.397C184.046 147.271 184.777 147.432 185.55 147.878C186.197 148.252 186.683 148.756 187.009 149.391C187.329 150.037 187.444 150.797 187.356 151.67C187.268 152.543 186.927 153.493 186.333 154.52C185.92 155.236 185.42 155.887 184.836 156.473C184.251 157.059 183.642 157.5 183.009 157.797L181.953 156.425C182.57 156.104 183.126 155.701 183.621 155.217C184.127 154.74 184.541 154.224 184.861 153.67C185.428 152.689 185.676 151.846 185.605 151.143C185.527 150.452 185.205 149.942 184.639 149.616C184.224 149.376 183.803 149.317 183.377 149.441C182.963 149.571 182.564 149.795 182.181 150.113C181.802 150.448 181.329 150.922 180.76 151.533C180.014 152.318 179.371 152.924 178.832 153.352C178.292 153.779 177.684 154.059 177.007 154.192C176.323 154.336 175.601 154.188 174.838 153.748C174.203 153.381 173.72 152.871 173.389 152.218C173.07 151.571 172.958 150.806 173.053 149.921C173.159 149.044 173.51 148.091 174.103 147.064Z" fill="#F6F4F4"/>
<path d="M168.027 176.655L158.214 166.67L159.64 165.269L164.014 169.719L169.748 164.083L165.374 159.633L166.801 158.231L176.614 168.216L175.188 169.618L170.968 165.324L165.234 170.96L169.453 175.254L168.027 176.655Z" fill="#F6F4F4"/>
<path d="M145.025 175.035C146.279 174.383 147.55 174.068 148.838 174.089C150.133 174.122 151.322 174.473 152.406 175.142C153.479 175.817 154.325 176.752 154.946 177.947C155.568 179.141 155.846 180.372 155.783 181.637C155.708 182.908 155.309 184.077 154.586 185.144C153.869 186.223 152.884 187.089 151.63 187.74C150.388 188.386 149.12 188.693 147.825 188.659C146.537 188.638 145.356 188.29 144.284 187.615C143.218 186.952 142.371 186.017 141.744 184.81C141.117 183.604 140.835 182.368 140.898 181.102C140.968 179.849 141.361 178.683 142.078 177.604C142.8 176.537 143.783 175.681 145.025 175.035ZM145.846 176.614C144.935 177.088 144.226 177.719 143.72 178.508C143.202 179.304 142.923 180.17 142.884 181.107C142.84 182.062 143.051 182.989 143.519 183.888C143.986 184.787 144.62 185.487 145.421 185.987C146.217 186.505 147.089 186.78 148.037 186.813C148.974 186.852 149.898 186.635 150.809 186.161C151.72 185.688 152.44 185.05 152.971 184.249C153.489 183.453 153.77 182.578 153.815 181.623C153.854 180.686 153.639 179.768 153.172 178.869C152.704 177.97 152.073 177.261 151.278 176.743C150.477 176.243 149.602 175.977 148.653 175.944C147.692 175.917 146.757 176.141 145.846 176.614Z" fill="#F6F4F4"/>
<path d="M128.529 195.683C126.75 196.036 125.266 195.888 124.078 195.24C122.889 194.592 122.147 193.523 121.852 192.032C121.556 190.541 121.834 189.269 122.686 188.217C123.537 187.164 124.853 186.462 126.631 186.109L130.025 185.437L129.201 181.278L131.163 180.889L133.885 194.622L128.529 195.683ZM127.029 187.805C125.786 188.051 124.89 188.5 124.339 189.153C123.792 189.819 123.616 190.649 123.813 191.643C124.01 192.637 124.488 193.331 125.245 193.724C126.006 194.131 127.007 194.211 128.249 193.965L131.585 193.304L130.364 187.144L127.029 187.805Z" fill="#F6F4F4"/>
<path d="M132.858 109.816C134.192 110.586 134.192 112.511 132.858 113.28L103.055 130.487C101.722 131.257 100.055 130.295 100.055 128.755L100.055 94.3416C100.055 92.802 101.722 91.8397 103.055 92.6095L132.858 109.816Z" fill="#F6F4F4"/>
<path d="M109.959 110.216H104.374L113.64 116.308V113.262H119.605L109.959 106.789V110.216Z" fill="#FF7A03"/>
<defs>
<linearGradient id="paint0_linear_11_144" x1="49.5585" y1="26.5228" x2="191.533" y2="208.25" gradientUnits="userSpaceOnUse">
<stop stop-color="#FFA104"/>
<stop offset="0.513487" stop-color="#FF7A03"/>
<stop offset="1" stop-color="#FFA104"/>
</linearGradient>
</defs>
</svg>
