<svg width="222" height="223" viewBox="0 0 222 223" fill="none" xmlns="http://www.w3.org/2000/svg">
<ellipse cx="111.331" cy="111.245" rx="110.669" ry="111.169" fill="url(#paint0_linear_21_640)"/>
<path d="M132.109 109.515C133.438 110.286 133.438 112.204 132.109 112.975L102.453 130.174C101.12 130.947 99.4501 129.985 99.4501 128.444L99.4501 94.0462C99.4501 92.5048 101.12 91.5428 102.453 92.3161L132.109 109.515Z" fill="white"/>
<path d="M109.309 109.912H103.749L112.973 116.005V112.958H118.912L109.309 106.485V109.912Z" fill="#FF7A03"/>
<path d="M102.155 178.894C103.541 179.087 104.753 179.566 105.791 180.331C106.813 181.106 107.567 182.073 108.051 183.232C108.534 184.403 108.681 185.662 108.493 187.009C108.304 188.356 107.819 189.52 107.035 190.501C106.25 191.495 105.254 192.217 104.046 192.668C102.837 193.132 101.539 193.267 100.153 193.073C99.0701 192.922 98.1056 192.598 97.2593 192.103C96.4112 191.621 95.72 190.979 95.1859 190.178L96.6478 189.11C97.5378 190.351 98.7619 191.081 100.32 191.299C101.35 191.443 102.313 191.342 103.21 190.996C104.106 190.65 104.849 190.101 105.439 189.349C106.014 188.608 106.372 187.736 106.512 186.732C106.652 185.729 106.548 184.785 106.201 183.902C105.838 183.03 105.273 182.305 104.505 181.726C103.738 181.148 102.839 180.787 101.809 180.643C100.264 180.427 98.8863 180.8 97.6748 181.761L96.5618 180.333C97.2953 179.709 98.1434 179.275 99.1062 179.033C100.056 178.789 101.072 178.742 102.155 178.894Z" fill="white"/>
<path d="M80.8014 172.255C82.0533 172.911 83.039 173.774 83.7584 174.843C84.4716 175.924 84.8639 177.1 84.9353 178.372C84.9949 179.637 84.7123 180.866 84.0875 182.059C83.4626 183.252 82.6131 184.184 81.5389 184.856C80.4528 185.521 79.2655 185.863 77.977 185.88C76.6823 185.91 75.4089 185.596 74.1569 184.94C72.9168 184.291 71.9401 183.426 71.2269 182.345C70.5075 181.275 70.118 180.108 70.0584 178.843C69.9926 177.589 70.2752 176.36 70.9062 175.155C71.5373 173.95 72.3899 173.012 73.4641 172.341C74.5322 171.681 75.7136 171.336 77.0083 171.307C78.2968 171.29 79.5612 171.606 80.8014 172.255ZM79.9755 173.832C79.066 173.356 78.1428 173.136 77.2057 173.172C76.2569 173.201 75.3871 173.468 74.5963 173.972C73.7876 174.482 73.1481 175.185 72.6779 176.083C72.2077 176.981 71.9965 177.901 72.0444 178.844C72.0742 179.793 72.347 180.666 72.8627 181.463C73.3667 182.254 74.0734 182.887 74.9828 183.364C75.8923 183.84 76.8274 184.066 77.788 184.043C78.7368 184.013 79.6156 183.743 80.4244 183.234C81.2152 182.73 81.8456 182.029 82.3158 181.131C82.786 180.234 83.0062 179.31 82.9764 178.362C82.9285 177.418 82.6468 176.548 82.131 175.751C81.6034 174.948 80.8849 174.308 79.9755 173.832Z" fill="white"/>
<path d="M50.4842 166.964C49.3557 165.719 48.8489 164.406 48.9638 163.024C49.0787 161.642 49.8325 160.32 51.2253 159.057L57.3742 153.482L58.7042 154.949L52.5996 160.483C51.5921 161.397 51.0554 162.333 50.9895 163.293C50.9138 164.262 51.2745 165.185 52.0715 166.064C52.9313 167.013 53.884 167.508 54.9297 167.55C55.9755 167.591 57.0416 167.12 58.1282 166.134L64.0104 160.801L65.3538 162.283L54.9821 171.687L53.6924 170.264L55.1593 168.934C53.4665 169.191 51.9081 168.534 50.4842 166.964Z" fill="white"/>
<path d="M37.1619 139.762C37.019 141.32 37.2 142.833 37.705 144.303L48.9625 139.2L49.7799 141.003L38.5224 146.106C39.3 147.466 40.3217 148.606 41.5875 149.526L40.4374 150.816C38.7283 149.629 37.4114 148.015 36.4866 145.975C35.5508 143.91 35.1999 141.844 35.4338 139.777L37.1619 139.762Z" fill="white"/>
<path d="M29.4378 121.564C29.2242 119.709 29.5987 118.183 30.5613 116.985C31.5107 115.789 32.992 115.074 35.0054 114.842L42.8138 113.943L43.0426 115.93L39.208 116.372L40.1324 124.399L43.967 123.957L44.1913 125.904L36.3829 126.803C34.3695 127.035 32.7646 126.677 31.5681 125.727C30.3584 124.779 29.6483 123.392 29.4378 121.564ZM37.4794 116.571L35.0554 116.85C33.6381 117.013 32.6064 117.494 31.9602 118.294C31.3126 119.079 31.0612 120.102 31.2061 121.36C31.351 122.618 31.8289 123.563 32.6398 124.195C33.4492 124.813 34.5625 125.04 35.9798 124.877L38.4038 124.598L37.4794 116.571Z" fill="white"/>
<path d="M44.7436 96.1629C44.437 97.5289 43.8604 98.6977 43.0137 99.6692C42.157 100.625 41.1316 101.296 39.9377 101.684C38.7307 102.069 37.4637 102.113 36.1368 101.815C34.8098 101.517 33.6895 100.938 32.7759 100.077C31.8492 99.213 31.2108 98.161 30.8606 96.9208C30.4973 95.6778 30.469 94.3732 30.7756 93.0072C31.0151 91.9404 31.4162 91.0056 31.979 90.2027C32.5289 89.3969 33.2251 88.7606 34.0678 88.2938L35.0125 89.8382C33.702 90.6236 32.8745 91.7838 32.5299 93.319C32.3022 94.3337 32.324 95.302 32.5953 96.2238C32.8667 97.1456 33.3531 97.9312 34.0546 98.5806C34.746 99.2141 35.586 99.6418 36.5748 99.8637C37.5635 100.086 38.5123 100.059 39.4211 99.7852C40.3198 99.4949 41.0888 98.9911 41.7281 98.2737C42.3674 97.5563 42.8009 96.6902 43.0287 95.6755C43.3704 94.1534 43.1116 92.7493 42.2524 91.4632L43.7665 90.4707C44.3289 91.2529 44.6914 92.1337 44.8542 93.1131C45.0199 94.0795 44.983 95.0961 44.7436 96.1629Z" fill="white"/>
<path d="M44.9151 67.3116C43.5655 68.1028 42.4405 69.1316 41.5403 70.3977L52.2448 76.5769L51.2549 78.2917L40.5504 72.1125C39.8975 73.5369 39.566 75.0313 39.5558 76.5958L37.8375 76.4122C37.8069 74.3315 38.3516 72.3212 39.4714 70.3812C40.6046 68.4182 42.0797 66.9296 43.8967 65.9155L44.9151 67.3116Z" fill="white"/>
<path d="M71.9876 38.3982L79.381 50.2868L77.7506 51.3007L76.705 49.6193C76.6545 51.3308 75.7405 52.7392 73.9628 53.8447C72.5475 54.7249 71.1704 54.9847 69.8313 54.6241C68.5036 54.2565 67.3433 53.2745 66.3505 51.678L61.9673 44.6298L63.6656 43.5736L68.0172 50.5709C68.7284 51.7144 69.5536 52.4102 70.4929 52.6583C71.4322 52.9063 72.3944 52.724 73.3795 52.1114C74.4438 51.4495 75.0901 50.6079 75.3186 49.5866C75.547 48.5652 75.2739 47.4318 74.4994 46.1864L70.3062 39.4439L71.9876 38.3982Z" fill="white"/>
<path d="M94.3674 44.8078C93.3435 45.0554 92.3145 45.1396 91.2803 45.0605C90.2559 44.9653 89.4104 44.7308 88.7438 44.357L89.0964 42.6667C89.7276 43.0079 90.481 43.2304 91.3566 43.3342C92.2421 43.4218 93.1124 43.3622 93.9678 43.1554C95.0953 42.8827 95.8922 42.4911 96.3586 41.9805C96.8218 41.457 96.9767 40.8777 96.8231 40.2426C96.7103 39.7761 96.4639 39.4379 96.0839 39.228C95.7138 39.002 95.2831 38.8661 94.7919 38.8202C94.3136 38.7713 93.6428 38.7483 92.7793 38.7514C91.6959 38.7527 90.807 38.7071 90.1124 38.6144C89.4308 38.5186 88.802 38.2728 88.2262 37.8771C87.6602 37.4652 87.2722 36.8252 87.0623 35.9569C86.8868 35.2311 86.9164 34.5312 87.1512 33.8571C87.399 33.1799 87.8693 32.5723 88.5623 32.0344C89.2553 31.4964 90.1785 31.088 91.3319 30.8091C92.1354 30.6147 92.951 30.5273 93.7787 30.5466C94.6065 30.5659 95.346 30.7026 95.9973 30.9566L95.7318 32.6669C95.0739 32.4419 94.3989 32.3171 93.7071 32.2923C93.0121 32.2546 92.3535 32.311 91.7315 32.4614C90.6299 32.7278 89.849 33.1293 89.3889 33.6658C88.9418 34.1992 88.795 34.7834 88.9486 35.4184C89.0614 35.885 89.3093 36.2297 89.6925 36.4525C90.0724 36.6624 90.5096 36.7968 91.0039 36.8556C91.5081 36.8982 92.1774 36.9147 93.0118 36.905C94.0952 36.9036 94.9777 36.9509 95.6593 37.0467C96.3409 37.1425 96.9631 37.3898 97.526 37.7887C98.1018 38.1844 98.4932 38.8099 98.7 39.6653C98.8724 40.3781 98.8362 41.0796 98.5916 41.7697C98.3439 42.4469 97.867 43.0561 97.1611 43.5972C96.452 44.1253 95.5208 44.5288 94.3674 44.8078Z" fill="white"/>
<path d="M128.663 44.7956C127.308 44.4443 126.159 43.8296 125.216 42.9515C124.289 42.0639 123.651 41.017 123.302 39.811C122.957 38.592 122.955 37.3243 123.297 36.0078C123.638 34.6914 124.254 33.5907 125.144 32.7058C126.038 31.8081 127.111 31.2045 128.362 30.8952C129.616 30.573 130.921 30.5875 132.276 30.9388C133.334 31.2131 134.255 31.6448 135.039 32.2336C135.827 32.8096 136.44 33.5264 136.879 34.384L135.304 35.2774C134.562 33.9419 133.43 33.0767 131.907 32.6819C130.9 32.4209 129.931 32.4109 129.001 32.6519C128.071 32.8929 127.27 33.3532 126.598 34.033C125.942 34.7032 125.487 35.5288 125.233 36.5097C124.978 37.4906 124.973 38.4397 125.218 39.357C125.478 40.2648 125.957 41.0499 126.653 41.7124C127.349 42.375 128.2 42.8367 129.207 43.0977C130.717 43.4891 132.129 43.2766 133.442 42.4601L134.384 44.0059C133.584 44.5423 132.692 44.8758 131.708 45.0063C130.736 45.1402 129.722 45.07 128.663 44.7956Z" fill="white"/>
<path d="M149.116 53.8356C147.947 53.0408 147.067 52.0711 146.475 50.9266C145.89 49.771 145.635 48.5575 145.71 47.2861C145.795 46.0221 146.217 44.8333 146.974 43.7198C147.732 42.6063 148.682 41.7775 149.826 41.2333C150.981 40.6967 152.2 40.4935 153.482 40.6238C154.772 40.743 156.001 41.2 157.169 41.9948C158.327 42.7822 159.198 43.7536 159.783 44.9092C160.375 46.0537 160.628 47.2579 160.543 48.5219C160.464 49.7749 160.043 50.9636 159.278 52.0882C158.513 53.2127 157.559 54.047 156.415 54.5912C155.278 55.1243 154.065 55.3312 152.776 55.212C151.493 55.0818 150.274 54.623 149.116 53.8356ZM150.117 52.3638C150.966 52.9412 151.858 53.2657 152.793 53.3372C153.739 53.4162 154.634 53.2507 155.477 52.8406C156.339 52.427 157.054 51.8013 157.624 50.9634C158.194 50.1255 158.509 49.2353 158.57 48.2928C158.649 47.3468 158.478 46.4484 158.057 45.5977C157.647 44.7544 157.017 44.044 156.168 43.4667C155.319 42.8893 154.416 42.5573 153.459 42.4708C152.513 42.3917 151.61 42.559 150.748 42.9726C149.904 43.3827 149.198 44.0067 148.628 44.8446C148.058 45.6825 147.734 46.5744 147.655 47.5204C147.594 48.4629 147.774 49.3595 148.195 50.2103C148.628 51.0686 149.268 51.7864 150.117 52.3638Z" fill="white"/>
<path d="M178.628 62.5642C179.606 63.9298 179.959 65.2925 179.687 66.6522C179.415 68.0119 178.514 69.2393 176.986 70.3342L170.239 75.1683L169.086 73.5588L175.784 68.7597C176.89 67.9676 177.53 67.0986 177.705 66.1529C177.892 65.1994 177.639 64.2403 176.948 63.2757C176.202 62.2352 175.313 61.6344 174.279 61.4731C173.245 61.3119 172.131 61.6584 170.939 62.5126L164.485 67.137L163.32 65.5112L174.7 57.3573L175.819 58.9181L174.209 60.0713C175.92 60.0099 177.393 60.8408 178.628 62.5642Z" fill="white"/>
<path d="M188.747 91.1128C189.068 89.5814 189.061 88.057 188.728 86.5396L176.96 90.3195L176.354 88.4344L188.122 84.6545C187.506 83.2141 186.621 81.9647 185.469 80.9064L186.759 79.7567C188.321 81.1316 189.445 82.8853 190.13 85.018C190.823 87.1761 190.935 89.2688 190.466 91.296L188.747 91.1128Z" fill="white"/>
<path d="M194.337 110.076C194.336 111.942 193.789 113.416 192.696 114.495C191.616 115.575 190.063 116.115 188.036 116.115L180.176 116.114L180.176 114.114L184.036 114.114L184.037 106.034L180.177 106.034L180.177 104.074L188.037 104.075C190.064 104.075 191.617 104.615 192.697 105.695C193.79 106.776 194.337 108.236 194.337 110.076ZM185.776 114.115L188.216 114.115C189.643 114.115 190.723 113.755 191.456 113.035C192.19 112.329 192.556 111.342 192.557 110.075C192.557 108.809 192.19 107.815 191.457 107.095C190.724 106.389 189.644 106.035 188.217 106.035L185.777 106.035L185.776 114.115Z" fill="white"/>
<path d="M176.223 133.557C176.684 132.235 177.39 131.14 178.343 130.271C179.303 129.42 180.399 128.87 181.629 128.622C182.872 128.377 184.136 128.479 185.42 128.927C186.704 129.375 187.751 130.079 188.56 131.039C189.381 132.003 189.895 133.121 190.101 134.393C190.32 135.67 190.198 136.969 189.737 138.291C189.377 139.323 188.872 140.206 188.221 140.939C187.582 141.677 186.818 142.229 185.927 142.596L185.165 140.954C186.557 140.324 187.512 139.266 188.03 137.78C188.373 136.798 188.462 135.834 188.298 134.887C188.134 133.94 187.741 133.104 187.118 132.379C186.504 131.67 185.718 131.149 184.761 130.816C183.805 130.482 182.859 130.399 181.925 130.568C180.999 130.753 180.177 131.165 179.46 131.805C178.743 132.444 178.213 133.255 177.87 134.237C177.357 135.71 177.453 137.135 178.159 138.511L176.541 139.323C176.072 138.482 175.813 137.565 175.763 136.574C175.709 135.595 175.863 134.589 176.223 133.557Z" fill="white"/>
<path d="M172.748 162.199C174.179 161.567 175.415 160.674 176.454 159.52L166.528 152.155L167.707 150.565L177.634 157.929C178.446 156.589 178.946 155.143 179.135 153.59L180.821 153.969C180.613 156.039 179.842 157.974 178.508 159.773C177.157 161.593 175.521 162.903 173.6 163.702L172.748 162.199Z" fill="white"/>
<path d="M142.543 187.821L136.559 175.164L138.295 174.343L139.141 176.133C139.387 174.439 140.457 173.145 142.349 172.25C143.856 171.538 145.254 171.437 146.543 171.949C147.82 172.466 148.86 173.574 149.663 175.274L153.211 182.778L151.403 183.633L147.881 176.183C147.305 174.966 146.565 174.18 145.661 173.826C144.756 173.472 143.779 173.543 142.73 174.039C141.597 174.574 140.859 175.336 140.515 176.325C140.171 177.313 140.312 178.47 140.939 179.796L144.333 186.975L142.543 187.821Z" fill="white"/>
<path d="M121.044 178.891C122.089 178.763 123.121 178.797 124.14 178.994C125.147 179.206 125.96 179.536 126.579 179.983L126.035 181.622C125.447 181.211 124.724 180.904 123.866 180.7C122.997 180.512 122.125 180.471 121.252 180.579C120.1 180.72 119.264 181.018 118.742 181.472C118.222 181.939 118.002 182.497 118.082 183.145C118.14 183.622 118.346 183.986 118.7 184.238C119.042 184.505 119.454 184.689 119.937 184.791C120.406 184.894 121.07 184.994 121.928 185.09C123.004 185.213 123.882 185.36 124.562 185.531C125.228 185.705 125.824 186.021 126.351 186.48C126.866 186.954 127.178 187.634 127.287 188.521C127.379 189.262 127.269 189.954 126.959 190.596C126.635 191.241 126.098 191.791 125.348 192.246C124.598 192.701 123.634 193.001 122.456 193.146C121.636 193.247 120.816 193.24 119.996 193.126C119.176 193.012 118.457 192.792 117.839 192.465L118.298 190.796C118.926 191.095 119.582 191.296 120.267 191.4C120.953 191.517 121.614 191.537 122.249 191.458C123.374 191.32 124.195 191.011 124.714 190.53C125.219 190.052 125.432 189.488 125.352 188.84C125.293 188.363 125.086 187.992 124.731 187.727C124.378 187.475 123.959 187.292 123.475 187.177C122.979 187.076 122.316 186.983 121.486 186.897C120.409 186.775 119.538 186.627 118.872 186.454C118.206 186.28 117.616 185.963 117.102 185.503C116.576 185.044 116.259 184.377 116.151 183.504C116.061 182.776 116.178 182.083 116.5 181.426C116.823 180.781 117.367 180.231 118.13 179.774C118.895 179.331 119.866 179.036 121.044 178.891Z" fill="white"/>
<defs>
<linearGradient id="paint0_linear_21_640" x1="49.1804" y1="26.2196" x2="191.308" y2="207.325" gradientUnits="userSpaceOnUse">
<stop stop-color="#FFA104"/>
<stop offset="0.513487" stop-color="#FF7A03"/>
<stop offset="1" stop-color="#FFA104"/>
</linearGradient>
</defs>
</svg>
